<?xml version="1.0" standalone="no"?>
<!DOCTYPE svg PUBLIC "-//W3C//DTD SVG 20010904//EN"
 "http://www.w3.org/TR/2001/REC-SVG-20010904/DTD/svg10.dtd">
<svg version="1.0" xmlns="http://www.w3.org/2000/svg"
 width="512.000000pt" height="512.000000pt" viewBox="0 0 512.000000 512.000000"
 preserveAspectRatio="xMidYMid meet">

<g transform="translate(0.000000,512.000000) scale(0.100000,-0.100000)"
fill="#000000" stroke="none">
<path d="M547 4765 c-48 -17 -85 -50 -103 -92 -12 -27 -14 -292 -14 -1583 l0
-1550 2130 0 2130 0 0 1550 c0 1287 -2 1556 -14 1583 -17 42 -66 83 -114 97
-25 7 -681 10 -2007 10 -1643 -1 -1976 -3 -2008 -15z m767 -679 c41 -17 61
-63 45 -104 -6 -15 -35 -53 -66 -84 l-57 -57 62 -64 c33 -35 64 -76 67 -89 14
-56 -52 -120 -107 -103 -29 10 -205 180 -225 219 -9 17 -12 39 -8 54 11 45
213 242 248 242 4 0 23 -6 41 -14z m538 -14 c41 -41 35 -66 -62 -262 -51 -102
-99 -193 -107 -202 -40 -44 -121 -25 -143 34 -11 31 -6 43 89 234 69 139 107
204 123 212 29 14 78 7 100 -16z m431 -91 c93 -94 107 -112 107 -141 0 -29
-14 -47 -107 -142 -125 -125 -150 -136 -201 -93 -25 21 -32 35 -32 63 0 32 9
46 67 104 l67 67 -67 70 c-51 53 -67 76 -67 98 0 55 49 97 100 87 14 -3 71
-51 133 -113z m-774 -595 c24 -26 30 -70 13 -103 -20 -37 -60 -45 -217 -41
-147 3 -147 3 -171 31 -31 37 -31 81 1 112 24 25 27 25 188 25 159 0 164 -1
186 -24z m1016 -1 c32 -31 33 -80 3 -112 l-21 -23 -373 0 c-413 0 -407 -1
-420 67 -5 27 -1 37 24 63 l30 30 367 0 366 0 24 -25z m-420 -340 c27 -27 33
-79 12 -106 -28 -37 -48 -39 -417 -39 l-362 0 -29 29 c-31 31 -36 59 -17 94
24 46 23 46 416 47 l373 0 24 -25z m-259 -339 c21 -18 28 -32 28 -61 0 -29 -7
-43 -28 -61 -27 -24 -29 -24 -267 -24 l-241 0 -29 29 c-17 18 -29 40 -29 56 0
16 12 38 29 56 l29 29 241 0 c238 0 240 0 267 -24z m1362 1 c46 -42 34 -109
-23 -132 -51 -22 -1029 -22 -1080 0 -63 26 -69 100 -11 136 30 18 53 19 562
17 499 -3 533 -4 552 -21z m600 3 c44 -41 36 -116 -14 -139 -15 -6 -84 -11
-174 -11 -142 0 -150 1 -176 24 -39 33 -39 89 0 122 26 23 33 24 185 24 144 0
159 -2 179 -20z m-2217 -349 c37 -38 39 -82 4 -116 -23 -24 -30 -25 -142 -25
-123 1 -139 5 -161 47 -19 35 -14 63 17 94 29 29 31 29 141 29 110 0 112 0
141 -29z m2220 0 c37 -37 38 -78 4 -115 l-24 -26 -503 0 c-531 1 -521 0 -546
47 -19 35 -14 63 17 94 l29 29 497 0 497 0 29 -29z m-1281 -1 c11 -11 20 -33
20 -49 0 -88 -11 -91 -375 -91 -312 0 -334 2 -362 39 -19 25 -15 72 9 98 l21
23 334 0 c320 0 334 -1 353 -20z"/>
</g>
</svg>
